<svg width="50" height="50" viewBox="0 0 50 50" fill="none" xmlns="http://www.w3.org/2000/svg">
<g clip-path="url(#clip0_187_1699)">
<g clip-path="url(#clip1_187_1699)">
<path d="M15.5176 37.3262C15.5176 38.9174 16.8077 40.2168 18.4087 40.2168C19.9999 40.2168 21.2993 38.9267 21.2993 37.3262C21.2993 35.7345 20.0092 34.4351 18.4087 34.4351C16.8077 34.4351 15.5176 35.7345 15.5176 37.3262Z" fill="#284521"/>
<path d="M28.6538 37.3262C28.6538 38.9174 29.9439 40.2168 31.5444 40.2168C33.1356 40.2168 34.4351 38.9267 34.4351 37.3262C34.4351 35.7345 33.145 34.4351 31.5444 34.4351C29.9439 34.4351 28.6538 35.7345 28.6538 37.3262Z" fill="#284521"/>
<path d="M24.9721 0.0185547C19.7648 0.0185547 14.7835 1.60033 10.5465 4.59512C9.90592 5.04668 9.7554 5.9321 10.2075 6.56283C10.6596 7.19356 11.5445 7.35397 12.1752 6.90189C15.9325 4.24668 20.3486 2.84355 24.9627 2.84355C37.1846 2.84355 47.1377 12.7868 47.1377 25.0186C47.1377 37.2503 37.1939 47.1842 24.9721 47.1842C12.7497 47.1842 2.79655 37.241 2.79655 25.0186C2.79655 20.8753 3.92676 16.8738 6.09238 13.3894L8.3054 14.8868C9.47311 15.7717 10.2919 17.0524 10.6028 18.4837L12.2601 26.1863L12.7965 28.691C13.2867 30.9508 15.3205 32.5988 17.6273 32.5988H32.7778C34.7929 32.5988 36.5538 31.2331 37.0622 29.2842L39.8684 18.3993C40.1413 17.3258 39.9153 16.205 39.2377 15.3295C38.5596 14.4535 37.533 13.9451 36.4221 13.9451H18.3523C17.571 13.9451 16.9398 14.5758 16.9398 15.3576C16.9398 16.1394 17.571 16.7701 18.3523 16.7701H36.4127C36.7231 16.7701 36.9117 16.9488 36.9966 17.0524C37.0809 17.1561 37.2033 17.3821 37.1283 17.6837L34.3221 28.5686C34.1434 29.2748 33.5028 29.7644 32.7778 29.7644H17.6273C16.6387 29.7644 15.7627 29.0581 15.5559 28.0883L15.3861 27.3066H29.4632C30.245 27.3066 30.8757 26.6758 30.8757 25.8946C30.8757 25.1128 30.245 24.4821 29.4632 24.4821H14.7835L14.2846 22.1561H30.8195C31.6007 22.1561 32.232 21.5253 32.232 20.7436C32.232 19.9623 31.6007 19.3311 30.8195 19.3311H13.682L13.371 17.8811C12.9195 15.7816 11.733 13.917 9.9627 12.58L6.50697 10.2446C5.86634 9.81126 5.00957 9.97168 4.55749 10.6024C1.56322 14.8305 -0.0185547 19.8206 -0.0185547 25.0186C-0.0185547 38.804 11.196 50.0186 24.9814 50.0186C38.7669 50.0186 49.9814 38.804 49.9814 25.0186C49.9814 11.2331 38.7575 0.0185547 24.9721 0.0185547Z" fill="#284521"/>
<path d="M26.0004 13.4033C25.665 12.6309 25.1665 11.1273 25.6561 9.52209C26.4598 6.88823 29.6113 4.99969 33.404 5.24448C33.9077 8.4575 32.6665 11.4679 30.328 12.8111C28.7525 13.7158 27.1207 13.6101 26.3478 13.5023C27.1389 12.9023 28.0275 12.132 28.9155 11.1565C30.2858 9.65073 31.2009 8.15646 31.8061 6.96427C30.9363 8.17729 29.891 9.48823 28.642 10.8273C27.741 11.794 26.8509 12.6492 26.0004 13.4033Z" fill="#8E9866"/>
<path d="M24.9895 13.4869C24.3978 13.6655 23.2582 13.9009 22.1291 13.4072C20.2765 12.5968 19.1671 10.1369 19.6692 7.39102C22.0556 7.29727 24.1457 8.45925 24.9259 10.2796C25.452 11.5061 25.2358 12.6874 25.0916 13.2421C24.7213 12.6134 24.2348 11.8999 23.5989 11.1691C22.6171 10.041 21.6051 9.24623 20.7869 8.703C21.5978 9.44102 22.465 10.315 23.3358 11.3405C23.964 12.0801 24.5119 12.8025 24.9895 13.4869Z" fill="#8E9866"/>
<mask id="mask0_187_1699" style="mask-type:luminance" maskUnits="userSpaceOnUse" x="20" y="41" width="10" height="5">
<path d="M20.2295 41.5464H29.7295V45.7334H20.2295V41.5464Z" fill="white"/>
</mask>
<g mask="url(#mask0_187_1699)">
<path d="M20.2642 41.5747C20.5949 41.957 20.9569 42.307 21.3501 42.6247C21.7105 42.9132 22.098 43.1591 22.5126 43.3627C22.7048 43.458 22.9022 43.5424 23.1043 43.6153C23.3058 43.6882 23.5116 43.7492 23.7204 43.7981C23.9298 43.8471 24.1407 43.8841 24.3543 43.9091C24.5673 43.9336 24.7813 43.9461 24.9965 43.9461C25.211 43.9461 25.4251 43.9336 25.6381 43.9091C25.8517 43.8841 26.0626 43.8471 26.272 43.7981C26.4808 43.7492 26.6866 43.6882 26.8886 43.6153C27.0907 43.5424 27.2876 43.458 27.4798 43.3627C27.8944 43.1591 28.2819 42.9132 28.6423 42.6257L28.9199 42.3929C29.0105 42.3122 29.097 42.2257 29.1928 42.1414C29.2886 42.057 29.3678 41.9612 29.4605 41.8695C29.5532 41.7778 29.6334 41.6731 29.7293 41.5747C29.6944 42.6575 29.1095 43.719 28.236 44.4695C28.1241 44.5643 28.0079 44.6539 27.8876 44.7382C27.7673 44.8226 27.6438 44.9018 27.5168 44.9752C27.3897 45.0487 27.26 45.1164 27.1267 45.1789C26.9938 45.2409 26.8584 45.2971 26.7204 45.3476C26.5824 45.3981 26.4428 45.4419 26.3011 45.4804C26.1595 45.5185 26.0162 45.5502 25.8715 45.5757C25.7272 45.6013 25.5813 45.6205 25.4355 45.633C25.2892 45.6461 25.1423 45.6523 24.9959 45.6523C24.8491 45.6523 24.7022 45.6461 24.5563 45.633C24.41 45.6205 24.2647 45.6013 24.1199 45.5757C23.9756 45.5502 23.8324 45.5185 23.6907 45.4804C23.5485 45.4419 23.409 45.3981 23.2709 45.3476C23.1329 45.2971 22.9975 45.2409 22.8647 45.1789C22.7319 45.1164 22.6017 45.0487 22.4746 44.9752C22.3475 44.9018 22.2241 44.8226 22.1037 44.7382C21.984 44.6539 21.8678 44.5643 21.7553 44.4695C20.886 43.7169 20.3017 42.6565 20.2642 41.5747Z" fill="#284521"/>
</g>
</g>
</g>
<defs>
<clipPath id="clip0_187_1699">
<rect width="50" height="50" fill="white"/>
</clipPath>
<clipPath id="clip1_187_1699">
<rect width="50" height="50" fill="white"/>
</clipPath>
</defs>
</svg>
